<?xml version="1.0" encoding="iso-8859-1"?>
<!-- Generator: Adobe Illustrator 19.0.0, SVG Export Plug-In . SVG Version: 6.00 Build 0)  -->
<svg version="1.1" id="Layer_1" xmlns="http://www.w3.org/2000/svg" xmlns:xlink="http://www.w3.org/1999/xlink" x="0px" y="0px"
	 viewBox="0 0 512 512" style="enable-background:new 0 0 512 512;" xml:space="preserve">
<path style="fill:#13B7DC;" d="M357.355,277.094c-11.821,30.002-41.042,51.244-75.243,51.244c-34.201,0-63.42-21.243-75.242-51.244
	c-17.15,6.253-33.301,14.582-48.15,24.684c-39.892,27.137-70.384,67.065-85.576,113.886c-6.934,21.367-10.68,44.17-10.68,67.848
	H501.76C501.76,388.636,441.604,307.812,357.355,277.094z"/>
<path style="fill:#FFAE3E;" d="M282.112,328.338c34.201,0,63.42-21.243,75.243-51.244c-23.471-8.558-48.811-13.23-75.243-13.23
	c-26.431,0-51.771,4.672-75.242,13.23C218.692,307.097,247.911,328.338,282.112,328.338z"/>
<path style="fill:#13B7DC;" d="M277.106,28.488c-55.453,0-100.433,44.819-100.703,100.209H377.81
	C377.54,73.306,332.559,28.488,277.106,28.488z"/>
<path style="fill:#FFAE3E;" d="M176.402,128.696c-0.001,0.167-0.006,0.334-0.006,0.501c0,55.621,45.09,100.71,100.71,100.71
	s100.71-45.09,100.71-100.71c0-0.168-0.005-0.334-0.006-0.501H176.402z"/>
<rect x="10.24" y="204.718" style="fill:#E6E6E6;" width="148.48" height="209.92"/>
<rect x="60.58" y="204.718" style="fill:#13B7DC;" width="47.803" height="30.72"/>
<path d="M10.24,194.48C4.584,194.48,0,199.065,0,204.72v209.92c0,5.656,4.584,10.24,10.24,10.24h49.537
	c-5.012,19.055-7.553,38.72-7.553,58.633c0,5.656,4.584,10.24,10.24,10.24H501.76c5.656,0,10.24-4.584,10.24-10.24
	c0-48.097-14.698-94.16-42.508-133.209c-27.199-38.193-64.762-66.834-108.626-82.828c-0.001,0-0.003-0.001-0.004-0.002
	c-25.204-9.189-51.699-13.849-78.75-13.849c-27.051,0-53.547,4.659-78.75,13.849c-0.002,0-0.003,0.001-0.005,0.002
	c-11.876,4.331-23.381,9.674-34.397,15.914v-78.67c0-5.656-4.584-10.24-10.24-10.24H10.24z M343.093,283.123
	c-12.52,21.547-35.447,34.976-60.981,34.976c-25.534,0-48.461-13.43-60.981-34.976c19.688-5.988,40.151-9.017,60.981-9.017
	C302.942,274.105,323.405,277.134,343.093,283.123z M98.141,214.96v10.24H70.819v-10.24H98.141z M148.48,404.4h-128V214.96h29.859
	v20.48c0,5.656,4.584,10.24,10.24,10.24h47.803c5.656,0,10.24-4.584,10.24-10.24v-20.48h29.858V404.4z M81.03,424.88h77.69
	c5.656,0,10.24-4.584,10.24-10.24V307.281c10.369-6.67,21.305-12.412,32.655-17.144c6.798,12.837,16.565,23.86,28.646,32.243
	c12.453,8.642,26.674,13.957,41.611,15.627v135.266H72.95C73.742,456.813,76.455,440.6,81.03,424.88z M292.352,473.273V338.007
	c14.937-1.669,29.157-6.986,41.611-15.627c12.081-8.383,21.848-19.407,28.646-32.244c74.348,30.983,124.701,102.7,128.659,183.136
	H292.352V473.273z"/>
<path d="M90.717,138.936h75.871c4.949,56.633,52.621,101.211,110.517,101.211c61.178,0,110.95-49.772,110.95-110.95l-0.006-0.562
	c0-0.002,0-0.003,0-0.005c-0.306-60.867-50.072-110.383-110.943-110.383c-57.441,0-104.985,44.094-110.419,100.209H90.717
	c-5.656,0-10.24,4.584-10.24,10.24C80.477,134.351,85.062,138.936,90.717,138.936z M277.106,219.667
	c-16.585,0-32.13-4.505-45.51-12.331h13.274c5.656,0,10.24-4.584,10.24-10.24s-4.584-10.24-10.24-10.24h-37.394
	c-4.52-5.451-8.405-11.441-11.563-17.858h6.035c5.656,0,10.24-4.584,10.24-10.24s-4.584-10.24-10.24-10.24h-13.202
	c-0.687-3.14-1.231-6.331-1.582-9.583h179.89C362.185,184.261,323.703,219.667,277.106,219.667z M277.106,38.727
	c46.162,0,84.489,34.918,89.829,79.729H187.277C192.616,73.645,230.945,38.727,277.106,38.727z"/>
<path d="M316.416,357.376c-5.656,0-10.24,4.584-10.24,10.24v13.312c0,5.656,4.584,10.24,10.24,10.24
	c5.656,0,10.24-4.584,10.24-10.24v-13.312C326.656,361.96,322.072,357.376,316.416,357.376z"/>
<path d="M316.416,420.864c-5.656,0-10.24,4.584-10.24,10.24v13.312c0,5.656,4.584,10.24,10.24,10.24
	c5.656,0,10.24-4.584,10.24-10.24v-13.312C326.656,425.448,322.072,420.864,316.416,420.864z"/>
<path d="M40.96,302.08c-5.656,0-10.24,4.584-10.24,10.24V384c0,5.656,4.584,10.24,10.24,10.24S51.2,389.656,51.2,384v-71.68
	C51.2,306.664,46.616,302.08,40.96,302.08z"/>
<path d="M40.96,265.216c-5.656,0-10.24,4.584-10.24,10.24v6.144c0,5.656,4.584,10.24,10.24,10.24s10.24-4.584,10.24-10.24v-6.144
	C51.2,269.8,46.616,265.216,40.96,265.216z"/>
<g>
</g>
<g>
</g>
<g>
</g>
<g>
</g>
<g>
</g>
<g>
</g>
<g>
</g>
<g>
</g>
<g>
</g>
<g>
</g>
<g>
</g>
<g>
</g>
<g>
</g>
<g>
</g>
<g>
</g>
</svg>
